<?xml version="1.0" encoding="utf-8"?>
<!-- Generator: Adobe Illustrator 28.0.0, SVG Export Plug-In . SVG Version: 6.00 Build 0)  -->
<svg version="1.1" id="Слой_1" xmlns="http://www.w3.org/2000/svg" xmlns:xlink="http://www.w3.org/1999/xlink" x="0px" y="0px"
	 viewBox="0 0 1000 749.7533569" enable-background="new 0 0 1000 749.7533569" xml:space="preserve">
<path id="path" fill="#4D6BFE" d="M989.5616455,63.0478363c-10.5428467-5.3578568-15.2093506,4.6665192-21.4313965,9.851532
	c-2.0740356,1.5555115-3.8023071,3.8023453-5.7034912,5.7035217
	c-15.3822021,16.9377365-33.5297852,27.9991074-57.2080688,26.6164322
	c-34.3939209-1.9011765-63.9486084,9.1602097-90.0465088,35.9494705
	c-5.5307007-33.1841278-24.0239258-52.8871994-52.0230103-65.6769104
	c-14.690918-6.5676956-29.3817749-13.1353874-39.7518311-27.4806061
	c-7.0862427-10.3700371-9.1602173-21.7770805-12.6168823-33.0112915
	c-2.4196777-6.7405262-4.6665649-13.6538849-12.2712402-14.8637228c-8.2960205-1.2098379-11.579834,5.8763552-14.8637085,11.7527113
	c-12.9625244,24.3695889-18.147583,51.1588593-17.6290894,78.1209564
	c1.2098389,61.0103912,26.4436646,109.5767517,76.5654907,144.1435394
	c5.7035522,3.8023529,7.2590332,7.7775269,5.3578491,13.6538849c-3.2838135,11.9255524-7.4318237,23.3325958-11.0613403,35.2581635
	c-2.2468872,7.6046753-5.7035522,9.3330078-13.6539307,6.0491638
	c-27.4805908-11.7526855-51.331665-29.0361023-72.4174194-50.1218567
	c-35.6038208-35.0852966-67.9237671-73.9729462-108.1940918-104.3917236
	c-9.3330078-7.0861969-18.8389282-13.6538925-28.6904297-19.8759079
	c-40.9616394-40.6159821,5.5307007-73.9729462,16.2463989-77.9481354
	c11.2341919-4.1480141,3.8023071-18.3204002-32.4927673-18.3204002
	c-36.295166,0.1728363-69.4792786,12.6168804-111.99646,29.2089462c-6.0491943,2.4196739-12.6168823,4.3208466-19.3573914,5.7035179
	c-38.3691711-7.4318581-78.2937927-8.9873657-120.1196289-4.3208504
	c-78.466629,8.9873695-141.2053528,46.8380127-187.3520203,111.3050995
	C3.3709583,237.9558258-9.5915909,326.2740173,6.3091364,418.2216797
	c16.7648964,96.9598389,65.3312454,177.1547852,139.9955139,239.8935547
	c77.4296265,65.1584473,166.611969,96.9598999,268.2383423,90.9107056
	c61.8745728-3.6295776,130.6625061-12.0983887,208.0921326-78.9851685
	c19.703064,9.8515625,40.0974731,13.8267822,74.145813,16.9378052c26.270752,2.4196167,51.5045166-1.3827515,71.2075806-5.5307617
	c30.5916138-6.567688,28.5176392-35.4309692,17.2833862-40.7887573
	c-89.7008057-42.5172119-69.9977417-25.2338257-87.9724731-39.2333374
	c45.6281128-55.1340332,114.4160767-112.169281,141.3781738-297.2744751c2.0739746-14.6908875,0.3457031-24.0239258,0-35.9494629
	c-0.1728516-7.2590332,1.3826294-10.0243835,9.5058594-10.8885498c22.6412964-2.592514,44.418335-8.8145294,64.467041-20.0487366
	c58.0722656-32.4927979,81.5776978-85.5528259,87.1083984-149.3285675
	C1000.6230469,78.0843964,999.5860596,68.0600204,989.5616455,63.0478363z M482.4667664,636.6838379
	c-86.9355164-69.6520996-129.1069946-92.6390381-146.5632019-91.6019897
	c-16.2464294,1.0369873-13.4810791,19.8758545-9.851532,32.3199463
	c3.8023071,12.2711792,8.6416931,20.7400513,15.5550232,31.4558105c4.6665344,7.0861816,7.9503479,17.6290283-4.8393555,25.5794067
	c-27.9990845,17.6290894-76.7382812-6.0492554-78.9851074-7.0861816
	c-56.6895599-34.0483398-104.0460663-78.9851685-137.5758667-140.5140686
	c-32.14711-59.1092224-50.9860229-122.5393066-54.0970306-190.1173706
	c-0.6913376-16.4192505,3.9751816-22.1227722,19.8759003-25.2337646
	c21.0857544-3.8023682,42.6900024-4.6665344,63.7757416-1.5555115
	c88.8366699,13.1354065,164.3651276,53.5785217,227.7952118,117.6999512
	c36.2951355,36.4679871,63.6029053,80.1949463,91.7748108,122.7121277
	c30.0731201,45.2825012,62.2202759,88.3182068,103.3547363,123.749115
	c14.5180664,12.4440918,26.0979004,21.7770386,37.1593018,28.6904297
	C576.4884033,666.5841064,520.6630859,667.4483032,482.4667664,636.6838379z M524.2926025,363.4333191
	c0-7.2590332,5.7034912-13.1354065,12.7896729-13.1354065c1.7283936,0,3.1110229,0.3456726,4.4937134,0.8641663
	c1.7283325,0.6913452,3.456665,1.7283325,4.6665039,3.1110229c2.2468262,2.4196472,3.6295166,5.7035217,3.6295166,9.1602173
	c0,7.2590027-5.7034912,12.9625244-12.9625244,12.9625244C529.8232422,376.3958435,524.2926025,370.6923218,524.2926025,363.4333191
	z M653.7452393,431.0113831c-8.2960205,3.6295166-16.592041,6.567688-24.5424194,6.9133606
	c-12.4440308,0.5185242-25.9250488-4.4936829-33.1841431-10.7157288
	c-11.4070435-9.851532-19.5302734-15.2093811-22.9868774-32.3199158c-1.555481-7.2590332-0.6913452-18.4932556,0.6912842-24.8881226
	c2.9382324-13.8266907-0.3457031-22.8140869-10.024353-30.9372559c-7.7775269-6.5677185-17.8018799-8.4688721-28.6904297-8.4688721
	c-3.9752197,0-7.7775269-1.7283325-10.5428467-3.283844c-4.6665649-2.2468567-8.2960815-7.9503784-4.8394165-15.2094116
	c1.2098389-2.2468262,6.7406006-7.7774963,8.12323-8.8145142c14.6908569-8.6416931,31.8014526-5.8763428,47.7022095,0.6913147
	c14.6908569,6.0491943,25.7521973,17.2834167,41.6529541,33.1841431
	c16.4192505,19.1845703,19.3574219,24.3695984,28.5175781,38.7148132
	c7.4318848,11.2341919,13.9995728,22.8140869,18.6661377,36.1222839
	C667.0534668,420.1228333,663.4239502,427.0362244,653.7452393,431.0113831z"/>
</svg>
