<svg version="1.2" xmlns="http://www.w3.org/2000/svg" viewBox="0 0 1634 513" width="1634" height="513">
	<title>qualys-svg</title>
	<style>
		.s0 { fill: #ed2e26 } 
		.s1 { fill: #262626 } 
		.s2 { fill: #ffffff } 
	</style>
	<path id="Layer" class="s0" d="m215.3 0c140.2 0 210.8 75 210.8 75 0 0 8 55.5 2.9 167.2-7.8 168.9-213.6 270.2-213.7 270.2 0 0.1-205.8-101.3-213.6-270.2-5.1-111.7 2.9-167.2 2.9-167.2 0 0 70.5-75 210.7-75z"/>
	<path id="Layer" fill-rule="evenodd" class="s1" d="m812.9 255.8c0.5 53.4-36.1 102.8-86 116.8q-1.8 0.5-3.6 1-1.8 0.4-3.6 0.8-1.8 0.3-3.6 0.6-1.8 0.3-3.6 0.4c0 0 17.1 6.4 54.5 12.9-4.4 9.2-18.1 22.6-25.3 26.6-50.8-8.4-94.8-26.6-125.4-53.1-32.7-28.2-50-64.8-50-106 0-16.2 3.2-32.2 9.4-47.1 6.2-15 15.3-28.5 26.7-40 11.5-11.4 25.1-20.5 40-26.7 15-6.2 31-9.4 47.2-9.4 68 0 122.7 55.3 123.3 123.2zm-89.7 81.1c10.7-4.4 20.3-10.9 28.5-19 8.1-8.2 14.6-17.9 19-28.5 4.4-10.6 6.7-22 6.7-33.6 0-35.5-21.4-67.5-54.2-81.1-32.8-13.6-70.6-6-95.7 19.1-25.1 25.1-32.6 62.8-19 95.6 13.5 32.8 45.6 54.2 81.1 54.2 11.5 0 22.9-2.3 33.6-6.7zm878.4-5c1.8-1.7 3.9-3 6.2-3.9 2.3-0.9 4.8-1.4 7.3-1.4 2.4 0 4.9 0.5 7.2 1.4 2.3 0.9 4.4 2.2 6.2 3.9 1.7 1.8 3 4 3.9 6.3 0.9 2.3 1.4 4.8 1.4 7.3 0 2.5-0.5 5-1.4 7.3-0.9 2.4-2.2 4.5-3.9 6.3-1.8 1.7-3.9 3.1-6.2 4-2.3 0.9-4.8 1.3-7.2 1.3-2.5 0-5-0.4-7.3-1.3-2.3-0.9-4.4-2.3-6.2-4-1.7-1.8-3-3.9-3.9-6.3-0.9-2.3-1.4-4.8-1.4-7.3 0-2.5 0.5-5 1.4-7.3 0.9-2.3 2.2-4.5 3.9-6.3zm2.7 24.6c1.5 1.4 3.2 2.4 5 3.2 1.8 0.7 3.8 1.1 5.8 1.1 1.9 0 3.9-0.4 5.7-1.1 1.9-0.8 3.6-1.8 5-3.2 1.3-1.5 2.4-3.2 3.1-5.1 0.7-1.9 1.1-3.9 1.1-5.9 0-2-0.4-4-1.1-5.9-0.7-1.9-1.8-3.6-3.1-5.1-1.5-1.4-3.1-2.4-5-3.1-1.8-0.8-3.8-1.1-5.7-1.1-2 0-4 0.3-5.8 1.1-1.8 0.7-3.5 1.7-5 3.1-1.3 1.5-2.3 3.2-3.1 5.1-0.7 1.9-1 3.9-1 5.9 0 2 0.3 4 1 5.9 0.8 1.9 1.8 3.6 3.1 5.1zm18.8-15.9q0 1.1-0.3 2.1-0.3 1-1 1.8-0.6 0.9-1.5 1.5-0.8 0.6-1.9 0.8l5.4 8.4h-4.2l-4.9-8.1h-2.4v8.1h-3.6v-20.8h7.7q0.7 0 1.3 0.1 0.7 0.1 1.3 0.3 0.6 0.2 1.2 0.6 0.5 0.3 1 0.7 0.5 0.4 0.8 1 0.4 0.5 0.6 1.1 0.3 0.5 0.4 1.2 0.1 0.6 0.1 1.2zm-10.8-2.9v6.1h3.6q0.4 0 0.7 0 0.4-0.1 0.7-0.2 0.3-0.1 0.6-0.3 0.3-0.1 0.6-0.3 0.2-0.3 0.4-0.5 0.1-0.3 0.3-0.5 0.1-0.3 0.1-0.6 0.1-0.3 0.1-0.6 0-3.1-3.5-3.1zm-198.3-135.7h37.2c0 0-61.9 154.5-79.6 198.2-7.6 18.6-27 19.9-44.7 19.9 0 0 26.9-63.9 26.9-63.9l-60.8-154.2h37.2l41.6 110.5zm-181.4-68.3h34.4v209.8c0 23.4-34.4 24-34.4 24zm-71.5 68.3h34.5v141.6c0 23.4-34.5 24-34.5 24v-26.1c-11.9 16.5-32.2 26.2-55.9 26.2-24.5 0-45.5-8.9-60.8-25.8-14.1-15.6-21.9-36.7-21.9-59.3 0-48.6 35.6-85.2 82.7-85.2 27.6 0 46.3 13 55.9 26.4zm-5 103.5q1.2-2.6 2.2-5.4 0.9-2.7 1.6-5.6 0.6-2.8 1-5.7 0.4-2.9 0.5-5.8 0.1-2.9-0.1-5.7-0.2-2.9-0.8-5.7-0.5-2.8-1.4-5.5-0.9-2.8-2.1-5.4c-8-19.4-26-30.9-48.1-30.9-29.6 0-51.9 22.8-51.9 53v0.3c0.5 38.2 31.6 52.1 52.5 52.1 21.1 0 38.5-11.1 46.6-29.7zm-196.3-103.5h34.4v142.7c0 22.3-32.7 22.8-32.7 22.8v-22.6c-7 10-21.6 22.8-49.8 22.8h-1c-23.6-0.2-41.2-8.1-52.4-23.6-10.9-15.1-13.2-34.5-13.2-48.1v-94h34.5v87.1c0 31.1 12.9 46.1 39.5 46.1 26.2-0.2 40.7-15.7 40.7-43.5zm613.6 114.1c-0.7 30.1-25.7 53.1-56.9 52.4-24.8-0.5-49.6-18.1-62.7-48.2 6.3-2.1 26.9-8.8 40.4 5.2 6.9 7.2 14.1 12.4 23 11.8 12.1-0.7 21.4-7.9 21.6-19 0.2-7.1-2.9-10.5-9.5-15.2l-28.7-16c-17.3-9.9-30.6-19.2-30.1-41.8 0.2-6.3 1.6-12.5 4.2-18.2 2.5-5.7 6.2-10.8 10.8-15.1 4.5-4.3 9.9-7.7 15.7-9.9 5.9-2.3 12.1-3.3 18.4-3.1 4.5 0 9 0.6 13.3 1.8 4.4 1.1 8.6 2.9 12.5 5.1 3.9 2.2 7.5 5 10.7 8.1 3.3 3.2 6.1 6.7 8.4 10.6-2.3 1.7-21.1 17.8-21.1 17.8-4.2-5.6-11.7-12.5-21.7-12.9-9.4-0.3-18.5 6.3-18.6 13.2-0.3 10.3 12.8 17 30.7 24.8 33.5 16.1 39.9 34.1 39.6 48.6z"/>
	<path id="Layer" class="s2" d="m188.5 338.1c34.1 17.8 84.9 30.9 138.6 37.8-8.9 13.3-32.8 36-46.7 43.7-64.3-10.5-120.7-32.8-159.3-66.1-41.3-35.7-63.1-82.2-63.1-134.6-0.2-41.8 16.3-81.9 45.9-111.5 29.5-29.6 69.6-46.3 111.4-46.3 41.9 0 82 16.7 111.5 46.3 29.5 29.6 46.1 69.7 45.9 111.5 0 11.6-1.3 23.2-3.9 34.4-2.7 11.3-6.6 22.3-11.7 32.7-5.1 10.4-11.4 20.1-18.7 29.1-7.4 9-15.7 17.1-24.9 24.1-25.2-2.3-51.5-9.4-63.4-16.2 30.7-19.6 70.6-57.7 70.6-104.1 0-13.8-2.8-27.5-8.1-40.2-5.3-12.8-13-24.4-22.8-34.2-9.8-9.7-21.4-17.5-34.2-22.8-12.7-5.3-26.4-8-40.3-8-58 0-105.2 48.5-105.2 108.2 0 49.8 26.4 88.9 78.4 116.2z"/>
</svg>