<?xml version="1.0" encoding="utf-8"?>
<!-- Generator: Adobe Illustrator 24.3.0, SVG Export Plug-In . SVG Version: 6.00 Build 0)  -->
<svg version="1.0" id="Layer_1" xmlns="http://www.w3.org/2000/svg" xmlns:xlink="http://www.w3.org/1999/xlink" x="0px" y="0px"
	 viewBox="0 0 280 300" enable-background="new 0 0 280 300" xml:space="preserve">
<path fill-rule="evenodd" clip-rule="evenodd" d="M181.79,138.34c-3.16,0-5.53,1.19-6.72,3.16l-0.59,1.19v-3.75h-5.14v22.92h5.53
	v-13.63c0-3.16,1.78-5.14,4.94-5.14c2.96,0,4.54,1.78,4.54,4.94v13.83h5.53v-14.82C189.69,141.7,186.73,138.34,181.79,138.34z
	 M155.11,138.34c-6.52,0-10.47,4.15-10.47,10.67v3.16c0,6.32,4.15,10.08,10.67,10.08c4.35,0,7.51-1.58,9.29-4.94l-3.36-1.98
	c-1.38,1.98-3.75,3.16-5.93,3.16c-3.36,0-5.33-1.98-5.33-5.53v-0.99h15.41v-3.75C165.19,142.29,161.24,138.34,155.11,138.34z
	 M160.25,148.62h-10.27v-0.59c0-3.75,1.78-5.93,5.14-5.93c3.16,0,5.14,1.98,5.14,5.53V148.62z M244.42,135.18v-4.35h-18.97v4.35
	h6.72v22.33h-6.72v4.35h18.97v-4.35h-6.72v-22.33H244.42z M99.99,130.24c-8.5,0-13.83,5.33-13.83,13.83v4.54
	c0,8.5,5.33,13.83,13.83,13.83s13.83-5.33,13.83-13.83v-4.54C113.82,135.58,108.48,130.24,99.99,130.24z M108.09,149.01
	c0,5.73-2.96,8.89-8.1,8.89c-5.14,0-8.1-3.16-8.1-8.89v-5.33c0-5.73,2.96-8.89,8.1-8.89c5.14,0,8.1,3.16,8.1,8.89V149.01z
	 M131.21,138.54c-2.96,0-5.33,1.19-6.72,3.16l-0.59,0.79v-3.56h-5.14v30.82h5.53v-11.06l0.59,0.79c1.19,1.78,3.75,2.96,6.52,2.96
	c4.74,0,9.48-3.16,9.48-10.08v-3.95C140.69,143.48,137.73,138.34,131.21,138.54L131.21,138.54z M135.16,152.17
	c0,3.75-2.17,5.93-5.53,5.93c-3.16,0-5.53-2.37-5.53-5.93v-3.36c0-3.56,2.17-5.93,5.53-5.93c3.36,0,5.53,2.37,5.53,5.93V152.17z
	 M204.9,130.83l-11.06,31.02h5.53l2.17-6.72h12.84l0,0l2.17,6.52h5.53l-11.06-31.02L204.9,130.83z M202.93,150.79l4.94-15.61
	l4.94,15.61H202.93z M71.93,146.44c0.99-2.77,0.59-5.73-0.79-8.1c-2.17-3.75-6.52-5.73-10.67-4.74c-2.37-2.57-5.93-3.75-9.48-3.16
	c-3.56,0.79-6.32,3.36-7.51,6.72c-2.77,0.59-5.14,2.37-6.52,4.74c-2.17,3.75-1.78,8.5,1.19,11.66c-0.99,2.77-0.59,5.73,0.79,8.1
	c2.17,3.75,6.52,5.73,10.67,4.74c1.98,2.17,4.54,3.36,7.51,3.36c4.35,0,8.1-2.77,9.48-6.92c2.77-0.59,5.14-2.37,6.52-4.74
	C75.29,154.35,74.89,149.6,71.93,146.44z M57.11,167.19c-1.78,0-3.36-0.59-4.74-1.78l0.2-0.2l7.9-4.54c0.4-0.2,0.59-0.59,0.59-1.19
	v-11.06l3.36,1.98l0,0v9.29C64.42,163.83,61.26,167.19,57.11,167.19L57.11,167.19z M41.11,160.27c-0.79-1.58-1.19-3.16-0.79-4.94
	l0.2,0.2l7.9,4.54c0.4,0.2,0.79,0.2,1.38,0l9.68-5.53v3.75c0,0,0,0,0,0.2l-7.9,4.54C47.82,165.02,43.28,163.83,41.11,160.27z
	 M39.13,143.28c0.79-1.58,2.17-2.57,3.95-3.16v9.29c0,0.4,0.2,0.79,0.59,1.19l9.48,5.53l-3.36,1.98c0,0,0,0-0.2,0l-7.9-4.54
	C38.34,151.19,37.16,146.64,39.13,143.28L39.13,143.28z M66.4,149.6l-9.48-5.53l3.36-1.98c0,0,0,0,0.2,0l7.9,4.54
	c2.57,1.38,3.95,4.15,3.75,7.11c-0.2,2.77-2.17,5.33-4.74,6.32v-9.29C67.19,150.2,66.79,149.8,66.4,149.6L66.4,149.6z M69.76,144.67
	l-0.2-0.2l-7.9-4.54c-0.4-0.2-0.99-0.2-1.38,0l-9.48,5.53v-3.75c0,0,0,0,0-0.2l7.9-4.54c2.57-1.38,5.53-1.38,7.9,0.4
	C68.97,138.94,70.15,141.7,69.76,144.67L69.76,144.67L69.76,144.67z M49.01,151.38l-3.36-1.98l0,0v-9.29c0-2.96,1.58-5.53,4.35-6.72
	c2.57-1.19,5.73-0.79,7.9,0.99l-0.2,0.2l-7.9,4.54c-0.4,0.2-0.59,0.59-0.59,1.19L49.01,151.38z M50.79,147.43l4.35-2.37l4.35,2.37
	v4.94l-4.35,2.37l-4.35-2.37V147.43L50.79,147.43z"/>
</svg>
