<?xml version="1.0" encoding="UTF-8" standalone="no"?>
<!DOCTYPE svg PUBLIC "-//W3C//DTD SVG 1.1//EN" "http://www.w3.org/Graphics/SVG/1.1/DTD/svg11.dtd">
<svg width="100%" height="100%" viewBox="0 0 2400 480" version="1.1" xmlns="http://www.w3.org/2000/svg" xmlns:xlink="http://www.w3.org/1999/xlink" xml:space="preserve" xmlns:serif="http://www.serif.com/" style="fill-rule:evenodd;clip-rule:evenodd;stroke-linejoin:round;stroke-miterlimit:2;">
    <g transform="matrix(1,0,0,1,13,-34)">
        <g>
            <g transform="matrix(1.011908,0,0,0.877899,-13,7.204795)">
                <rect x="0" y="30.522" width="2371.757" height="546.76" style="fill:none;fill-rule:nonzero;"/>
            </g>
            <g transform="matrix(1.001054,0,0,1.002284,-0.128633,12.670365)">
                <path d="M390.022,256.291C390.037,285.745 397.352,309.601 406.37,309.601C415.393,309.601 422.713,285.725 422.728,256.306C422.713,226.852 415.408,202.986 406.38,202.986C397.352,202.991 390.007,226.857 390.022,256.291Z" style="fill:white;"/>
            </g>
            <g transform="matrix(1.001054,0,0,1.002284,-0.128633,12.670365)">
                <path d="M187.235,80.384C112.623,111.367 60.882,179.026 60.882,257.469C60.862,335.927 112.623,403.575 187.27,434.544C144.502,397.532 116.093,332.041 116.093,257.474C116.093,182.906 144.522,117.42 187.235,80.384Z" style="fill:white;"/>
            </g>
            <g transform="matrix(1.001054,0,0,1.002284,-0.128633,12.670365)">
                <path d="M237.774,60.963C202.801,60.963 174.406,149.329 174.406,258.231C174.406,367.197 202.796,455.509 237.798,455.519C255.077,455.509 270.761,433.905 282.19,398.908C291.861,422.447 304.036,436.513 317.251,436.513C348.764,436.523 374.328,356.996 374.303,258.914C374.328,160.837 348.784,81.295 317.281,81.334C304.16,81.334 292.074,95.178 282.432,118.376C270.974,82.928 255.205,60.982 237.774,60.963ZM365.844,258.924C365.869,313.966 352.164,358.62 335.287,358.62C318.399,358.62 304.719,313.961 304.719,258.944C304.719,203.872 318.399,159.233 335.287,159.213C352.184,159.228 365.864,203.862 365.844,258.924ZM279.561,125.74C267.708,158.288 260.224,205.876 260.224,258.919C260.219,311.496 267.569,358.729 279.235,391.246C273.543,398.962 267.267,403.244 260.684,403.244C234.938,403.224 214.091,338.322 214.091,258.231C214.091,178.179 234.938,113.248 260.65,113.248C267.391,113.263 273.79,117.737 279.561,125.74Z" style="fill:white;"/>
            </g>
            <g transform="matrix(1.001054,0,0,1.002284,-0.128633,12.670365)">
                <path d="M564.988,249.105C564.988,279.255 575.214,304.38 595.664,324.48C616.115,344.58 641.415,354.863 671.565,355.331C701.247,355.097 725.145,344.813 743.258,324.48C761.371,304.146 770.428,279.021 770.428,249.105C770.428,217.085 760.904,191.376 741.856,171.977C722.808,152.579 697.975,142.879 667.358,142.879C636.273,142.879 611.499,152.754 593.035,172.503C574.571,192.253 565.222,217.787 564.988,249.105ZM667.708,121.845C705.103,122.078 735.312,133.998 758.333,157.604C781.354,181.209 793.099,211.71 793.566,249.105C793.566,271.776 787.782,293.336 776.213,313.787C764.643,334.237 749.744,347.852 731.514,354.629L731.514,355.331L808.992,355.331L808.992,376.365L671.565,376.365C647.959,376.365 626.106,370.698 606.006,359.362C585.906,348.027 570.247,332.66 559.028,313.261C547.81,293.862 542.084,272.477 541.85,249.105C541.85,211.944 553.594,181.56 577.083,157.954C600.572,134.349 630.78,122.312 667.708,121.845ZM873.498,128.155L873.498,355.331L989.19,355.331L989.19,376.365L850.36,376.365L850.36,128.155L873.498,128.155ZM1187.618,121.845C1216.365,121.845 1238.919,132.245 1255.28,153.046L1235.297,167.42C1223.143,151.06 1207.017,142.879 1186.917,142.879C1170.556,142.879 1157.293,147.086 1147.126,155.5C1136.959,163.914 1131.642,175.366 1131.175,189.857C1131.175,202.478 1135.031,212.703 1142.744,220.533C1150.456,228.362 1163.895,234.965 1183.06,240.34C1208.302,247.82 1225.13,254.422 1233.544,260.148C1241.958,265.874 1248.327,272.944 1252.65,281.358C1256.974,289.772 1259.136,300.29 1259.136,312.91C1259.136,333.01 1251.949,349.546 1237.576,362.518C1223.202,375.489 1204.679,382.208 1182.009,382.676C1146.249,382.676 1119.372,370.172 1101.375,345.164L1123.462,330.439C1135.849,351.007 1154.78,361.407 1180.256,361.641C1196.85,361.641 1210.289,357.025 1220.572,347.793C1230.856,338.561 1235.998,326.934 1235.998,312.91C1235.998,304.73 1234.537,298.011 1231.616,292.752C1228.694,287.493 1224.254,282.936 1218.294,279.08C1212.334,275.223 1204.738,271.717 1195.506,268.562C1186.274,265.407 1175.465,261.726 1163.077,257.519C1144.38,251.442 1130.532,242.911 1121.534,231.927C1112.536,220.942 1108.036,206.919 1108.036,189.857C1108.036,169.757 1115.574,153.397 1130.649,140.776C1145.724,128.155 1164.713,121.845 1187.618,121.845ZM1432.673,281.709C1432.673,266.985 1427.181,254.539 1416.196,244.372C1405.211,234.205 1391.889,229.122 1376.23,229.122C1361.038,229.122 1347.95,234.205 1336.965,244.372C1325.98,254.539 1319.553,266.985 1317.683,281.709L1432.673,281.709ZM1377.632,210.191C1400.069,210.191 1418.299,217.436 1432.322,231.927C1446.346,246.417 1453.474,265.115 1453.708,288.019L1453.708,300.64L1317.683,300.64C1318.618,318.87 1324.636,333.536 1335.738,344.638C1346.839,355.74 1361.272,361.407 1379.034,361.641C1390.019,361.641 1400.478,359.012 1410.411,353.753C1420.344,348.494 1427.999,341.541 1433.374,332.894L1448.8,345.865C1433.608,369.003 1410.236,380.572 1378.684,380.572C1353.91,380.339 1334.102,372.275 1319.261,356.382C1304.419,340.489 1296.882,320.039 1296.648,295.031C1296.648,270.724 1304.303,250.566 1319.611,234.556C1334.92,218.546 1354.26,210.424 1377.632,210.191ZM1576.761,210.191C1600.133,210.191 1620.233,219.539 1637.061,238.237L1620.233,250.858C1606.677,236.367 1592.07,229.122 1576.411,229.122C1558.181,229.122 1543.047,235.316 1531.011,247.703C1518.974,260.09 1512.839,275.983 1512.605,295.382C1512.605,314.78 1518.682,330.615 1530.835,342.885C1542.989,355.155 1558.181,361.407 1576.411,361.641C1593.706,361.641 1608.314,354.162 1620.233,339.204L1636.36,352.526C1620.701,370.99 1600.834,380.339 1576.761,380.572C1552.221,380.572 1532.004,372.626 1516.111,356.733C1500.218,340.84 1492.038,320.39 1491.57,295.382C1491.57,271.308 1499.458,251.209 1515.235,235.082C1531.011,218.955 1551.52,210.658 1576.761,210.191ZM1729.264,380.572C1708.696,380.572 1693.271,374.788 1682.987,363.219C1672.703,351.65 1667.562,333.945 1667.562,310.106L1667.562,214.398L1688.596,214.398L1688.596,309.054C1688.596,326.583 1691.927,339.73 1698.588,348.494C1705.249,357.259 1715.474,361.641 1729.264,361.641C1746.325,361.641 1759.881,355.798 1769.931,344.112C1779.981,332.426 1785.123,315.949 1785.356,294.68L1785.356,214.398L1806.391,214.398L1806.391,332.543C1806.858,344.463 1807.443,359.07 1808.144,376.365L1787.109,376.365C1786.875,363.043 1786.408,353.578 1785.707,347.968L1784.655,347.968C1779.981,358.018 1772.56,365.965 1762.393,371.808C1752.227,377.651 1741.183,380.572 1729.264,380.572ZM1936.456,210.191C1940.429,210.191 1944.519,210.775 1948.726,211.944L1946.272,232.628C1943.701,231.693 1940.897,231.225 1937.858,231.225C1920.797,231.225 1907.767,236.484 1898.769,247.002C1889.77,257.519 1885.271,271.192 1885.271,288.019L1885.271,376.365L1864.237,376.365L1864.237,258.22C1864.237,255.883 1863.652,241.275 1862.484,214.398L1883.519,214.398C1883.986,230.524 1884.453,239.99 1884.921,242.795C1897.074,221.059 1914.253,210.191 1936.456,210.191ZM1984.486,214.398L2005.52,214.398L2005.52,376.365L1984.486,376.365L1984.486,214.398ZM1995.003,134.465C1999.677,134.465 2003.475,135.985 2006.397,139.023C2009.318,142.061 2010.779,145.801 2010.779,150.242C2010.779,154.682 2009.318,158.422 2006.397,161.46C2003.475,164.498 1999.677,166.018 1995.003,166.018C1990.562,166.018 1986.823,164.498 1983.784,161.46C1980.746,158.422 1979.227,154.682 1979.227,150.242C1979.227,145.801 1980.746,142.061 1983.784,139.023C1986.823,135.985 1990.562,134.465 1995.003,134.465ZM2077.039,167.771L2098.073,167.771L2098.073,214.398L2144.35,214.398L2144.35,233.329L2098.073,233.329L2098.073,339.204C2098.073,345.982 2100.06,351.416 2104.033,355.506C2108.006,359.596 2113.499,361.641 2120.51,361.641C2128.223,361.641 2136.17,359.771 2144.35,356.032L2146.103,374.963C2135.585,378.703 2126.353,380.572 2118.407,380.572C2104.617,380.572 2094.275,376.716 2087.381,369.003C2080.486,361.291 2077.039,351.357 2077.039,339.204L2077.039,233.329L2041.981,233.329L2041.981,214.398L2077.039,214.398L2077.039,167.771ZM2182.563,214.398L2236.202,350.773L2288.438,214.398L2310.875,214.398L2227.788,425.797C2218.673,448.935 2203.715,460.505 2182.914,460.505C2176.37,460.505 2169.475,459.453 2162.23,457.349L2164.333,437.717C2172.046,440.288 2178.356,441.573 2183.264,441.573C2188.64,441.573 2193.431,439.703 2197.638,435.964C2201.845,432.224 2205.935,425.447 2209.908,415.63L2224.983,377.067L2159.074,214.398L2182.563,214.398Z" style="fill:white;fill-rule:nonzero;"/>
            </g>
        </g>
    </g>
</svg>
