<?xml version="1.0" encoding="UTF-8" standalone="no"?><!DOCTYPE svg PUBLIC "-//W3C//DTD SVG 1.1//EN" "http://www.w3.org/Graphics/SVG/1.1/DTD/svg11.dtd"><svg width="100%" height="100%" viewBox="0 0 10000 2000" version="1.1" xmlns="http://www.w3.org/2000/svg" xmlns:xlink="http://www.w3.org/1999/xlink" xml:space="preserve" xmlns:serif="http://www.serif.com/" style="fill-rule:evenodd;clip-rule:evenodd;stroke-linejoin:round;stroke-miterlimit:2;"><g><g><path d="M1683.931,981.487c0.062,122.725 30.542,222.125 68.117,222.125c37.596,0 68.096,-99.483 68.158,-222.062c-0.062,-122.725 -30.5,-222.167 -68.117,-222.167c-37.617,0.021 -68.221,99.463 -68.158,222.104Z" style="fill:#2c64b9;"/><path d="M838.985,248.542c-310.883,129.096 -526.471,411.008 -526.471,737.854c-0.083,326.908 215.588,608.775 526.617,737.813c-178.2,-154.217 -296.571,-427.096 -296.571,-737.792c0,-310.7 118.454,-583.558 296.425,-737.875Z" style="fill:#2c64b9;"/><path d="M1049.565,167.621c-145.721,0 -264.033,368.192 -264.033,821.95c0,454.025 118.292,821.992 264.133,822.033c71.996,-0.042 137.346,-90.058 184.967,-235.879c40.296,98.079 91.025,156.687 146.088,156.687c131.304,0.042 237.821,-331.321 237.717,-739.996c0.104,-408.654 -106.329,-740.079 -237.592,-739.917c-54.671,0 -105.029,57.683 -145.204,154.342c-47.742,-147.7 -113.446,-239.142 -186.075,-239.221Zm533.625,824.837c0.104,229.342 -57,415.4 -127.321,415.4c-70.367,0 -127.367,-186.079 -127.367,-415.317c0,-229.467 57,-415.462 127.367,-415.546c70.404,0.062 127.404,186.037 127.321,415.462Zm-359.512,-554.933c-49.387,135.617 -80.571,333.9 -80.571,554.913c-0.021,219.071 30.604,415.875 79.212,551.362c-23.717,32.15 -49.867,49.992 -77.296,49.992c-107.275,-0.083 -194.137,-270.508 -194.137,-604.221c0,-333.55 86.863,-604.096 193.996,-604.096c28.087,0.063 54.75,18.704 78.796,52.05Z" style="fill:#2c64b9;"/><path d="M2412.956,951.546c0,125.625 42.608,230.312 127.817,314.062c85.212,83.75 190.629,126.596 316.254,128.546c123.675,-0.975 223.25,-43.825 298.721,-128.546c75.471,-84.725 113.208,-189.412 113.208,-314.062c0,-133.417 -39.683,-240.538 -119.05,-321.367c-79.367,-80.825 -182.838,-121.242 -310.409,-121.242c-129.521,0 -232.746,41.146 -309.679,123.433c-76.933,82.292 -115.887,188.683 -116.862,319.175Zm428,-530.25c155.813,0.971 281.683,50.637 377.604,148.996c95.921,98.354 144.858,225.442 146.804,381.254c0,94.462 -24.1,184.296 -72.304,269.508c-48.208,85.208 -110.287,141.938 -186.246,170.175l0,2.925l322.825,0l0,87.642l-572.613,0c-98.358,0 -189.412,-23.613 -273.163,-70.846c-83.75,-47.229 -148.996,-111.258 -195.742,-192.087c-46.742,-80.829 -70.6,-169.933 -71.575,-267.317c0,-154.838 48.933,-281.438 146.804,-379.796c97.871,-98.354 223.738,-148.508 377.604,-150.454Zm857.458,26.292l0,946.567l482.05,0l0,87.642l-578.458,0l0,-1034.208l96.408,-0Zm1308.834,-26.292c119.779,0 213.754,43.333 281.925,130.004l-83.263,59.892c-50.642,-68.167 -117.833,-102.254 -201.583,-102.254c-68.171,0 -123.433,17.529 -165.796,52.588c-42.362,35.058 -64.517,82.775 -66.462,143.154c0,52.588 16.066,95.192 48.204,127.817c32.133,32.621 88.129,60.133 167.984,82.529c105.175,31.167 175.291,58.675 210.35,82.533c35.059,23.858 61.596,53.317 79.609,88.375c18.017,35.058 27.025,78.883 27.025,131.467c0,83.75 -29.946,152.65 -89.833,206.7c-59.892,54.046 -137.071,82.042 -231.529,83.992c-149,0 -260.988,-52.1 -335.975,-156.3l92.029,-61.354c51.612,85.7 130.492,129.033 236.641,130.008c69.142,0 125.137,-19.233 167.984,-57.7c42.85,-38.467 64.275,-86.912 64.275,-145.346c0,-34.083 -6.088,-62.079 -18.259,-83.992c-12.175,-21.912 -30.675,-40.9 -55.508,-56.967c-24.833,-16.071 -56.483,-30.679 -94.95,-43.825c-38.466,-13.146 -83.504,-28.483 -135.121,-46.012c-77.904,-25.321 -135.604,-60.867 -173.096,-106.633c-37.492,-45.771 -56.242,-104.2 -56.242,-175.292c0,-83.75 31.408,-151.917 94.221,-204.504c62.812,-52.588 141.933,-78.879 237.371,-78.879Zm1021.062,666.1c0,-61.35 -22.883,-113.208 -68.654,-155.571c-45.771,-42.363 -101.279,-63.542 -166.525,-63.542c-63.3,0 -117.833,21.179 -163.604,63.542c-45.771,42.362 -72.55,94.221 -80.342,155.571l479.125,0Zm-229.338,-297.992c93.488,0 169.446,30.187 227.875,90.567c58.433,60.375 88.133,138.283 89.108,233.717l0,52.587l-566.771,0c3.896,75.958 28.971,137.067 75.229,183.325c46.254,46.258 106.391,69.871 180.4,70.846c45.771,0 89.35,-10.954 130.737,-32.867c41.387,-21.913 73.283,-50.883 95.679,-86.913l64.275,54.046c-63.3,96.408 -160.684,144.613 -292.15,144.613c-103.225,-0.971 -185.758,-34.571 -247.596,-100.792c-61.842,-66.221 -93.246,-151.429 -94.221,-255.629c0,-101.279 31.896,-185.271 95.679,-251.979c63.788,-66.708 144.371,-100.55 241.754,-101.521Zm829.704,0c97.384,0 181.134,38.95 251.25,116.858l-70.117,52.588c-56.483,-60.379 -117.346,-90.567 -182.592,-90.567c-75.958,0 -139.017,25.808 -189.167,77.421c-50.154,51.612 -75.717,117.833 -76.692,198.663c0,80.825 25.321,146.804 75.958,197.929c50.642,51.125 113.942,77.175 189.9,78.15c72.063,0 132.929,-31.163 182.592,-93.488l67.196,55.508c-65.246,76.933 -148.025,115.888 -248.329,116.858c-102.25,0 -186.487,-33.108 -252.708,-99.329c-66.221,-66.221 -100.304,-151.429 -102.254,-255.629c0,-100.308 32.867,-184.054 98.604,-251.25c65.733,-67.196 151.188,-101.767 256.358,-103.712Zm635.429,709.921c-85.7,0 -149.971,-24.1 -192.821,-72.304c-42.85,-48.204 -64.271,-121.975 -64.271,-221.304l0,-398.783l87.641,0l0,394.4c0,73.037 13.879,127.817 41.634,164.333c27.754,36.521 70.358,54.779 127.817,54.779c71.087,0 127.571,-24.346 169.446,-73.038c41.875,-48.692 63.3,-117.346 64.271,-205.967l0,-334.508l87.646,0l0,492.271c1.946,49.667 4.383,110.529 7.304,182.592l-87.646,0c-0.975,-55.508 -2.921,-94.946 -5.842,-118.321l-4.383,0c-19.475,41.875 -50.396,74.987 -92.759,99.333c-42.358,24.346 -88.375,36.517 -138.037,36.517Zm863.3,-709.921c16.554,0 33.596,2.433 51.125,7.304l-10.225,86.183c-10.712,-3.896 -22.396,-5.846 -35.058,-5.846c-71.088,0 -125.379,21.913 -162.871,65.738c-37.496,43.821 -56.242,100.792 -56.242,170.904l0,368.108l-87.641,0l0,-492.271c0,-9.738 -2.438,-70.604 -7.304,-182.592l87.646,0c1.945,67.192 3.891,106.633 5.842,118.321c50.637,-90.567 122.217,-135.85 214.729,-135.85Zm200.125,17.529l87.642,0l0,674.862l-87.642,0l0,-674.862Zm43.821,-333.054c19.475,0 35.3,6.333 47.475,18.992c12.171,12.658 18.259,28.242 18.259,46.746c0,18.5 -6.088,34.083 -18.259,46.742c-12.175,12.658 -28,18.992 -47.475,18.992c-18.504,0 -34.084,-6.333 -46.746,-18.992c-12.659,-12.658 -18.988,-28.242 -18.988,-46.742c0,-18.504 6.329,-34.087 18.988,-46.746c12.662,-12.658 28.241,-18.992 46.746,-18.992Zm341.817,138.775l87.641,0l0,194.279l192.821,0l0,78.879l-192.821,0l0,441.146c0,28.242 8.279,50.883 24.833,67.925c16.555,17.042 39.442,25.563 68.654,25.563c32.137,0 65.25,-7.792 99.334,-23.371l7.304,78.879c-43.825,15.583 -82.292,23.371 -115.4,23.371c-57.458,0 -100.55,-16.067 -129.274,-48.204c-28.729,-32.133 -43.092,-73.525 -43.092,-124.163l0,-441.146l-146.075,0l0,-78.879l146.075,0l0,-194.279Zm439.683,194.279l223.495,568.229l217.65,-568.229l93.488,0l-346.195,880.829c-37.979,96.408 -100.304,144.617 -186.975,144.617c-27.266,0 -55.996,-4.383 -86.184,-13.15l8.763,-81.8c32.137,10.712 58.429,16.067 78.879,16.067c22.4,0 42.362,-7.792 59.892,-23.371c17.529,-15.583 34.571,-43.821 51.125,-84.725l62.812,-160.679l-274.621,-677.787l97.871,0Z" style="fill:#2c64b9;fill-rule:nonzero;"/></g></g></svg>